<?xml version="1.0" ?><svg id="Layer_1" style="enable-background:new 0 0 512 512;" version="1.1" viewBox="0 0 512 512" xml:space="preserve" xmlns="http://www.w3.org/2000/svg" xmlns:xlink="http://www.w3.org/1999/xlink"><style type="text/css">
	.st0{fill:#FFCE0E;}
	.st1{fill:#F5F6F6;}
	.st2{fill:#231F20;}
</style><circle class="st0" cx="256" cy="256" r="256"/><g><ellipse class="st1" cx="179" cy="178.3" rx="63.1" ry="76"/><path class="st1" d="M396.1,178.3c0,42-28.3,76-63.1,76s-63.1-34-63.1-76s28.2-76,63.1-76S396.1,136.3,396.1,178.3z"/><ellipse class="st2" cx="184.3" cy="202" rx="33.5" ry="40.3"/><ellipse class="st1" cx="181.1" cy="194.2" rx="11.3" ry="8.7"/><ellipse class="st1" cx="199.8" cy="213.1" rx="4.6" ry="5.5"/><ellipse class="st2" cx="333" cy="202.9" rx="33.5" ry="40.3"/><ellipse class="st1" cx="329.9" cy="195" rx="11.3" ry="8.7"/><ellipse class="st1" cx="348.5" cy="213.9" rx="4.6" ry="5.5"/></g><path class="st2" d="M430.6,335.2c-7.3-3.4-13.6-5.2-19-6c-0.1,0-0.1-0.1-0.2-0.1c-0.3-0.1-0.6-0.1-0.8-0.1  c-17.5-2.2-25.4,6.4-25.9,6.9c-1.1,1.2-1,3.1,0.2,4.2s3.1,1,4.2-0.2c0.1-0.1,5.4-5.8,17.7-5.2C394.1,373.9,330.4,403,256,403  c-74.4,0-138.1-29.1-150.8-68.3c12-0.6,17.3,4.9,17.7,5.2c1.1,1.2,3,1.3,4.2,0.2c1.2-1.1,1.3-3,0.2-4.2c-0.4-0.5-8.4-9.1-25.9-6.9  c-0.3,0-0.6,0-0.8,0.1c-0.1,0-0.1,0.1-0.2,0.1c-5.4,0.8-11.8,2.6-19,6c-1.5,0.7-2.2,2.5-1.5,4c0.5,1.1,1.6,1.7,2.7,1.7  c0.4,0,0.9-0.1,1.3-0.3c5.8-2.7,10.9-4.3,15.3-5.2c6.1,20.1,24.5,38.5,52.3,51.9c28.9,14,66,21.6,104.5,21.6  c38.5,0,75.6-7.7,104.5-21.6c27.8-13.4,46.3-31.8,52.3-51.9c4.4,0.8,9.5,2.4,15.3,5.2c0.4,0.2,0.8,0.3,1.3,0.3  c1.1,0,2.2-0.6,2.7-1.7C432.8,337.7,432.1,335.9,430.6,335.2z"/></svg>